<svg xmlns="http://www.w3.org/2000/svg" viewBox="0 0 128 128" role="img" aria-labelledby="title desc">
  <title id="title">CatDollOfficial Favicon</title>
  <desc id="desc">A glowing cat emblem with a star accent on a deep gradient background.</desc>
  <defs>
    <linearGradient id="bg" x1="18" y1="10" x2="110" y2="118" gradientUnits="userSpaceOnUse">
      <stop offset="0" stop-color="#09111f"/>
      <stop offset="0.55" stop-color="#123b5b"/>
      <stop offset="1" stop-color="#1d7f7a"/>
    </linearGradient>
    <radialGradient id="orb" cx="0" cy="0" r="1" gradientTransform="translate(87 34) rotate(123) scale(52 47)" gradientUnits="userSpaceOnUse">
      <stop offset="0" stop-color="#8cf3ff"/>
      <stop offset="1" stop-color="#8cf3ff" stop-opacity="0"/>
    </radialGradient>
    <linearGradient id="fur" x1="38" y1="30" x2="91" y2="98" gradientUnits="userSpaceOnUse">
      <stop offset="0" stop-color="#fffdf7"/>
      <stop offset="0.55" stop-color="#ffe6b0"/>
      <stop offset="1" stop-color="#ffb562"/>
    </linearGradient>
    <linearGradient id="ear" x1="31" y1="22" x2="56" y2="50" gradientUnits="userSpaceOnUse">
      <stop offset="0" stop-color="#ffd4e0"/>
      <stop offset="1" stop-color="#ff8ca8"/>
    </linearGradient>
    <linearGradient id="earRight" x1="72" y1="22" x2="97" y2="50" gradientUnits="userSpaceOnUse">
      <stop offset="0" stop-color="#ffd4e0"/>
      <stop offset="1" stop-color="#ff8ca8"/>
    </linearGradient>
    <filter id="shadow" x="-30%" y="-30%" width="160%" height="160%">
      <feDropShadow dx="0" dy="8" stdDeviation="8" flood-color="#04111f" flood-opacity="0.5"/>
    </filter>
    <filter id="glow" x="-50%" y="-50%" width="200%" height="200%">
      <feGaussianBlur stdDeviation="3.2"/>
    </filter>
  </defs>

  <rect width="128" height="128" rx="30" fill="url(#bg)"/>
  <circle cx="87" cy="34" r="48" fill="url(#orb)"/>
  <circle cx="25" cy="101" r="34" fill="#ff8ca8" opacity="0.14"/>
  <path d="M18 92c16-11 32-16 49-15 17 1 32 6 43 16" fill="none" stroke="#ffffff" stroke-opacity="0.12" stroke-width="3" stroke-linecap="round"/>
  <path d="M25 28l10-4M97 23l8 5M100 101l7 4" fill="none" stroke="#f2fbff" stroke-opacity="0.35" stroke-width="3" stroke-linecap="round"/>

  <g filter="url(#shadow)">
    <path d="M34 44 42 19c1-3 5-4 8-1l13 13c1 1 2 1 3 0l13-13c3-3 7-2 8 1l8 25c6 7 10 16 10 27 0 24-18 39-41 39S23 95 23 71c0-11 4-20 11-27Z" fill="url(#fur)"/>
    <path d="M42 19c1-3 5-4 8-1l10 10-16 18Z" fill="url(#ear)"/>
    <path d="M86 19c-1-3-5-4-8-1L68 28l16 18Z" fill="url(#earRight)"/>
    <path d="M45 74c6-3 11-2 16 2M83 74c-6-3-11-2-16 2" fill="none" stroke="#0f2435" stroke-width="5" stroke-linecap="round"/>
    <ellipse cx="48" cy="67" rx="8" ry="11" fill="#0e2334"/>
    <ellipse cx="80" cy="67" rx="8" ry="11" fill="#0e2334"/>
    <ellipse cx="48" cy="64" rx="3" ry="4" fill="#8cf3ff"/>
    <ellipse cx="80" cy="64" rx="3" ry="4" fill="#8cf3ff"/>
    <path d="M58 82c4-4 8-4 12 0-1 4-3 6-6 6s-5-2-6-6Z" fill="#ff7c9d"/>
    <path d="M64 88v8" fill="none" stroke="#5f3a42" stroke-width="3" stroke-linecap="round"/>
    <path d="M64 96c-4 4-8 6-13 6M64 96c4 4 8 6 13 6" fill="none" stroke="#5f3a42" stroke-width="3" stroke-linecap="round"/>
    <path d="M18 77h24M17 86h22M86 77h24M89 86h22" fill="none" stroke="#fffaf1" stroke-width="3.5" stroke-linecap="round" stroke-opacity="0.9"/>
  </g>

  <g transform="translate(92 24)">
    <path d="M0 8 8 8 10 0 12 8 20 8 13.5 13 16 21 10 16 4 21 6.5 13Z" fill="#fff3a6"/>
    <path d="M0 8 8 8 10 0 12 8 20 8 13.5 13 16 21 10 16 4 21 6.5 13Z" fill="#fff3a6" opacity="0.6" filter="url(#glow)"/>
  </g>
</svg>
